<svg width="862" height="190" viewBox="0 0 862 190" fill="none" xmlns="http://www.w3.org/2000/svg">
<path d="M98.3409 126.817C107.525 109.701 140.64 48.0046 140.64 48.0046C150.563 28.989 168.835 35.1426 180 48.6459C180 48.6459 135.36 131.824 135.36 131.811C125.428 150.827 102.776 145.222 96 131.17L96.0094 131.158C96.6545 129.753 97.7717 127.878 98.3409 126.817Z" fill="#0066FF"/>
<path d="M12.9176 136.744C11.0407 135.681 9.40519 134.564 8.01095 133.395C6.67034 132.225 6.00003 130.976 6.00003 129.647C6.00003 127.095 7.09934 125.819 9.29795 125.819C10.7458 125.819 12.3545 126.617 14.1242 128.212C15.8938 129.806 17.8779 131.215 20.0765 132.438C22.2751 133.607 24.6614 134.617 27.2354 135.468C32.5442 137.222 37.4509 138.099 41.9553 138.099C46.4598 138.099 49.9186 137.807 52.3317 137.222C54.7984 136.637 56.863 135.84 58.5254 134.83C62.0646 132.65 63.8342 129.86 63.8342 126.457C63.8342 123.321 62.3059 120.158 59.2493 116.968C56.6753 114.257 53.0288 111.014 48.3099 107.24L34.5551 96.5549C20.7736 86.0293 12.6495 76.4074 10.1828 67.6892C9.32476 64.6591 8.89576 61.2834 8.89576 57.5622C8.89576 53.841 9.72694 50.173 11.3893 46.5581C13.1053 42.9433 16.6753 38.7112 20 36C23 38.5 32.5666 46.0863 37 49.5C40.5 52.195 45.5214 55.8079 52.9752 61.8682C60.4827 67.8752 66.4886 73.138 70.9931 77.6566C75.5512 82.1752 79.01 86.2419 81.3694 89.8568C85.1232 95.5449 87 101.472 87 107.639C87 113.752 85.9007 118.962 83.7021 123.268C81.5571 127.521 78.5273 131.189 74.6127 134.272C66.3545 140.757 56.1122 144 43.8858 144C31.6594 144 21.3367 141.581 12.9176 136.744Z" fill="#00156A"/>
<path d="M249.117 123.17C249.117 127.96 247.953 132.003 245.624 135.299C243.294 138.595 239.889 141.1 235.406 142.813C230.968 144.483 225.519 145.318 219.059 145.318C213.961 145.318 209.566 144.945 205.875 144.198C202.228 143.495 198.778 142.396 195.526 140.902V127.521C198.998 129.146 202.887 130.553 207.193 131.739C211.544 132.926 215.653 133.519 219.52 133.519C224.618 133.519 228.287 132.728 230.528 131.146C232.77 129.52 233.89 127.367 233.89 124.686C233.89 123.104 233.429 121.698 232.506 120.467C231.627 119.193 229.957 117.896 227.496 116.578C225.079 115.216 221.52 113.59 216.817 111.7C212.203 109.854 208.314 108.009 205.15 106.163C201.986 104.317 199.591 102.098 197.965 99.5054C196.339 96.8687 195.526 93.5068 195.526 89.4199C195.526 82.96 198.075 78.0601 203.172 74.7202C208.314 71.3364 215.104 69.6445 223.541 69.6445C228.023 69.6445 232.242 70.106 236.197 71.0288C240.196 71.9077 244.107 73.2041 247.931 74.918L243.053 86.5854C239.757 85.1353 236.439 83.9487 233.099 83.0259C229.803 82.0591 226.441 81.5757 223.014 81.5757C219.015 81.5757 215.96 82.1909 213.851 83.4214C211.786 84.6519 210.753 86.4097 210.753 88.6948C210.753 90.4087 211.258 91.8589 212.269 93.0454C213.28 94.2319 215.016 95.4185 217.477 96.605C219.981 97.7915 223.453 99.2637 227.892 101.021C232.242 102.691 236 104.449 239.164 106.295C242.372 108.097 244.833 110.316 246.546 112.953C248.26 115.589 249.117 118.995 249.117 123.17ZM330.46 107.35C330.46 113.414 329.669 118.797 328.087 123.5C326.505 128.202 324.198 132.179 321.166 135.431C318.133 138.639 314.486 141.1 310.223 142.813C305.96 144.483 301.148 145.318 295.787 145.318C290.777 145.318 286.185 144.483 282.01 142.813C277.835 141.1 274.21 138.639 271.134 135.431C268.102 132.179 265.75 128.202 264.081 123.5C262.411 118.797 261.576 113.414 261.576 107.35C261.576 99.3076 262.96 92.4961 265.729 86.915C268.541 81.29 272.54 77.0054 277.726 74.061C282.911 71.1167 289.085 69.6445 296.249 69.6445C302.972 69.6445 308.905 71.1167 314.046 74.061C319.188 77.0054 323.209 81.29 326.109 86.915C329.01 92.54 330.46 99.3516 330.46 107.35ZM277.528 107.35C277.528 112.667 278.165 117.215 279.439 120.995C280.758 124.774 282.779 127.674 285.504 129.696C288.229 131.673 291.744 132.662 296.051 132.662C300.357 132.662 303.873 131.673 306.598 129.696C309.322 127.674 311.322 124.774 312.596 120.995C313.871 117.215 314.508 112.667 314.508 107.35C314.508 102.032 313.871 97.5278 312.596 93.8364C311.322 90.1011 309.322 87.2666 306.598 85.333C303.873 83.3555 300.335 82.3667 295.985 82.3667C289.569 82.3667 284.889 84.52 281.944 88.8267C279 93.1333 277.528 99.3076 277.528 107.35ZM384.71 82.8281H366.979V144H351.488V82.8281H339.557V75.3794L351.488 70.8311V65.7554C351.488 59.5591 352.455 54.6372 354.388 50.9897C356.366 47.3423 359.178 44.7275 362.826 43.1455C366.517 41.5195 370.912 40.7065 376.009 40.7065C379.349 40.7065 382.403 40.9922 385.172 41.5635C387.94 42.0908 390.27 42.7061 392.159 43.4092L388.138 55.1426C386.644 54.6592 384.974 54.2197 383.128 53.8242C381.283 53.3848 379.305 53.165 377.196 53.165C373.68 53.165 371.087 54.2637 369.417 56.4609C367.792 58.6582 366.979 61.8662 366.979 66.085V71.0288H384.71V82.8281ZM424.327 132.794C426.349 132.794 428.348 132.618 430.326 132.267C432.303 131.871 434.105 131.41 435.731 130.882V142.616C434.017 143.363 431.798 144 429.073 144.527C426.349 145.055 423.514 145.318 420.57 145.318C416.439 145.318 412.726 144.637 409.43 143.275C406.134 141.869 403.519 139.474 401.585 136.09C399.652 132.706 398.685 128.026 398.685 122.049V82.8281H388.731V75.9067L399.41 70.4355L404.486 54.813H414.242V71.0288H435.138V82.8281H414.242V121.852C414.242 125.543 415.165 128.29 417.01 130.091C418.856 131.893 421.295 132.794 424.327 132.794ZM467.24 144L439.488 71.0288H455.902L470.931 113.875C471.898 116.6 472.777 119.544 473.568 122.708C474.359 125.873 474.908 128.531 475.216 130.685H475.743C476.051 128.443 476.644 125.763 477.523 122.643C478.402 119.479 479.303 116.556 480.226 113.875L495.255 71.0288H511.603L483.851 144H467.24ZM551.285 69.6445C560.514 69.6445 567.479 71.688 572.181 75.7749C576.927 79.8618 579.3 86.2339 579.3 94.8911V144H568.292L565.326 133.651H564.798C562.733 136.288 560.602 138.463 558.404 140.177C556.207 141.891 553.658 143.165 550.758 144C547.901 144.879 544.408 145.318 540.277 145.318C535.926 145.318 532.037 144.527 528.609 142.945C525.182 141.319 522.479 138.858 520.501 135.562C518.524 132.267 517.535 128.092 517.535 123.038C517.535 115.523 520.326 109.876 525.907 106.097C531.532 102.318 540.013 100.23 551.351 99.835L564.007 99.3735V95.5503C564.007 90.4966 562.821 86.8931 560.448 84.7397C558.119 82.5864 554.823 81.5098 550.56 81.5098C546.913 81.5098 543.375 82.0371 539.947 83.0918C536.52 84.1465 533.18 85.4429 529.928 86.981L524.918 76.0386C528.478 74.1489 532.521 72.6108 537.047 71.4243C541.617 70.2378 546.363 69.6445 551.285 69.6445ZM563.941 109.129L554.515 109.459C546.781 109.723 541.354 111.041 538.233 113.414C535.113 115.787 533.553 119.039 533.553 123.17C533.553 126.773 534.63 129.41 536.783 131.08C538.937 132.706 541.771 133.519 545.287 133.519C550.648 133.519 555.086 132.003 558.602 128.971C562.162 125.895 563.941 121.39 563.941 115.458V109.129ZM650.03 123.17C650.03 127.96 648.866 132.003 646.537 135.299C644.208 138.595 640.802 141.1 636.319 142.813C631.881 144.483 626.432 145.318 619.972 145.318C614.874 145.318 610.479 144.945 606.788 144.198C603.141 143.495 599.691 142.396 596.439 140.902V127.521C599.911 129.146 603.8 130.553 608.106 131.739C612.457 132.926 616.566 133.519 620.433 133.519C625.531 133.519 629.2 132.728 631.441 131.146C633.683 129.52 634.803 127.367 634.803 124.686C634.803 123.104 634.342 121.698 633.419 120.467C632.54 119.193 630.87 117.896 628.409 116.578C625.992 115.216 622.433 113.59 617.73 111.7C613.116 109.854 609.227 108.009 606.063 106.163C602.899 104.317 600.504 102.098 598.878 99.5054C597.252 96.8687 596.439 93.5068 596.439 89.4199C596.439 82.96 598.988 78.0601 604.085 74.7202C609.227 71.3364 616.017 69.6445 624.454 69.6445C628.937 69.6445 633.155 70.106 637.11 71.0288C641.109 71.9077 645.021 73.2041 648.844 74.918L643.966 86.5854C640.67 85.1353 637.352 83.9487 634.012 83.0259C630.716 82.0591 627.354 81.5757 623.927 81.5757C619.928 81.5757 616.874 82.1909 614.764 83.4214C612.699 84.6519 611.666 86.4097 611.666 88.6948C611.666 90.4087 612.171 91.8589 613.182 93.0454C614.193 94.2319 615.929 95.4185 618.39 96.605C620.895 97.7915 624.366 99.2637 628.805 101.021C633.155 102.691 636.913 104.449 640.077 106.295C643.285 108.097 645.746 110.316 647.459 112.953C649.173 115.589 650.03 118.995 650.03 123.17ZM682.264 71.0288V144H666.773V71.0288H682.264ZM674.618 43.0796C676.991 43.0796 679.034 43.7168 680.748 44.9912C682.506 46.2656 683.385 48.4629 683.385 51.583C683.385 54.6592 682.506 56.8564 680.748 58.1748C679.034 59.4492 676.991 60.0864 674.618 60.0864C672.157 60.0864 670.069 59.4492 668.355 58.1748C666.686 56.8564 665.851 54.6592 665.851 51.583C665.851 48.4629 666.686 46.2656 668.355 44.9912C670.069 43.7168 672.157 43.0796 674.618 43.0796ZM769.078 107.35C769.078 113.414 768.287 118.797 766.705 123.5C765.123 128.202 762.816 132.179 759.784 135.431C756.751 138.639 753.104 141.1 748.841 142.813C744.579 144.483 739.767 145.318 734.405 145.318C729.396 145.318 724.803 144.483 720.628 142.813C716.454 141.1 712.828 138.639 709.752 135.431C706.72 132.179 704.369 128.202 702.699 123.5C701.029 118.797 700.194 113.414 700.194 107.35C700.194 99.3076 701.578 92.4961 704.347 86.915C707.159 81.29 711.158 77.0054 716.344 74.061C721.529 71.1167 727.704 69.6445 734.867 69.6445C741.59 69.6445 747.523 71.1167 752.665 74.061C757.806 77.0054 761.827 81.29 764.728 86.915C767.628 92.54 769.078 99.3516 769.078 107.35ZM716.146 107.35C716.146 112.667 716.783 117.215 718.058 120.995C719.376 124.774 721.397 127.674 724.122 129.696C726.847 131.673 730.362 132.662 734.669 132.662C738.976 132.662 742.491 131.673 745.216 129.696C747.94 127.674 749.94 124.774 751.214 120.995C752.489 117.215 753.126 112.667 753.126 107.35C753.126 102.032 752.489 97.5278 751.214 93.8364C749.94 90.1011 747.94 87.2666 745.216 85.333C742.491 83.3555 738.954 82.3667 734.603 82.3667C728.187 82.3667 723.507 84.52 720.562 88.8267C717.618 93.1333 716.146 99.3076 716.146 107.35ZM824.911 69.6445C833.128 69.6445 839.522 71.7759 844.093 76.0386C848.707 80.2573 851.014 87.0469 851.014 96.4072V144H835.523V99.3076C835.523 93.6387 834.359 89.3979 832.03 86.5854C829.701 83.729 826.097 82.3008 821.219 82.3008C814.144 82.3008 809.222 84.4761 806.454 88.8267C803.729 93.1772 802.367 99.4834 802.367 107.745V144H786.876V71.0288H798.939L801.114 80.9165H801.971C803.553 78.3677 805.509 76.2803 807.838 74.6543C810.211 72.9844 812.848 71.7319 815.748 70.897C818.692 70.062 821.747 69.6445 824.911 69.6445Z" fill="#00156A"/>
</svg>
